<?xml version="1.0" standalone="no"?><!DOCTYPE svg PUBLIC "-//W3C//DTD SVG 1.1//EN" "http://www.w3.org/Graphics/SVG/1.1/DTD/svg11.dtd"><svg t="1735964299103" class="icon" viewBox="0 0 1024 1024" version="1.1" xmlns="http://www.w3.org/2000/svg" p-id="13640" xmlns:xlink="http://www.w3.org/1999/xlink" width="32" height="32"><path d="M580 770.3c-21.9 0-43.6-0.3-64.5-0.8-6.2-0.1-12.4-0.3-18.5-0.4-84-1.8-163.3-3.6-228-16.2-75.3-14.7-124.2-42.8-153.8-88.4-22.3-34.3-28.5-80.2-18.6-136.5 8.5-48.1 29.2-103.6 59.9-160.3 42.5-78.6 102.6-156.5 164.9-213.8 49-45.1 122.4-98.9 193.7-99.1 47.4-0.2 102.2 23.9 158.5 69.5 50.2 40.6 99.7 96.2 143 160.7 43.7 65 76.7 132.6 95.5 195.3 21.1 70.3 22.6 130.8 4.4 174.9-21.2 51.3-70.6 84.3-151.1 100.9-54.9 11.3-121.1 14.2-185.4 14.2zM515.1 74.7l0.1 20c-45.6 0.1-104.8 31.6-166.7 88.6-59.2 54.4-116.3 128.6-156.8 203.4-59.5 110-75.5 205.6-42.9 255.9 23.3 35.9 64 58.4 128 71 61.3 12 139 13.7 221.1 15.5 6.1 0.1 12.3 0.3 18.6 0.4 80 1.8 171.1 1.7 240.8-12.6 66.5-13.7 106.5-38.9 122.2-77 14.7-35.5 12.7-86.8-5.8-148.2-17.4-58.1-49.6-123.6-90.4-184.5-40.5-60.3-88.4-114.3-134.9-151.9-49-39.6-95-60.6-133-60.6h-0.3v-20z" fill="#ffffff" p-id="13641"></path><path d="M610.6 747.1h-198c-8.3 0-15-6.8-15-15v-261c0-8.3 6.8-15 15-15h198c8.3 0 15 6.8 15 15v261c0 8.2-6.8 15-15 15z" fill="#ffffff" p-id="13642"></path><path d="M610.6 767.1h-198c-19.3 0-35-15.7-35-35v-261c0-19.3 15.7-35 35-35h198c19.3 0 35 15.7 35 35v261c0 19.3-15.7 35-35 35z m-193-40h188v-251h-188v251z" fill="#ffffff" p-id="13643"></path></svg>